<svg xmlns="http://www.w3.org/2000/svg" viewBox="0 0 600 400" role="img" aria-labelledby="title desc">
  <title id="title">Minneapolis puzzle image</title>
  <desc id="desc">A stylized Minneapolis skyline over water for the jigsaw activity.</desc>
  <defs>
    <linearGradient id="sky" x1="0" x2="0" y1="0" y2="1">
      <stop offset="0%" stop-color="#87c6e6"/>
      <stop offset="60%" stop-color="#d9edf6"/>
      <stop offset="100%" stop-color="#f7f0df"/>
    </linearGradient>
    <linearGradient id="water" x1="0" x2="0" y1="0" y2="1">
      <stop offset="0%" stop-color="#6aa6c0"/>
      <stop offset="100%" stop-color="#437187"/>
    </linearGradient>
  </defs>
  <rect width="600" height="400" fill="url(#sky)"/>
  <circle cx="440" cy="78" r="42" fill="#f6dd95" opacity="0.88"/>
  <rect y="258" width="600" height="142" fill="url(#water)"/>
  <rect x="44" y="218" width="512" height="20" rx="10" fill="#855231"/>
  <path d="M84 258c34-44 91-44 124 0" fill="none" stroke="#855231" stroke-width="10" stroke-linecap="round"/>
  <path d="M192 258c34-44 91-44 124 0" fill="none" stroke="#855231" stroke-width="10" stroke-linecap="round"/>
  <path d="M300 258c34-44 91-44 124 0" fill="none" stroke="#855231" stroke-width="10" stroke-linecap="round"/>
  <path d="M408 258c34-44 91-44 124 0" fill="none" stroke="#855231" stroke-width="10" stroke-linecap="round"/>
  <rect x="62" y="134" width="60" height="124" fill="#596877"/>
  <rect x="134" y="98" width="82" height="160" fill="#6b7c8d"/>
  <rect x="228" y="122" width="42" height="136" fill="#495563"/>
  <rect x="282" y="80" width="76" height="178" fill="#5f7082"/>
  <rect x="370" y="110" width="52" height="148" fill="#43505c"/>
  <rect x="434" y="138" width="38" height="120" fill="#5f7082"/>
  <rect x="484" y="96" width="58" height="162" fill="#6b7c8d"/>
  <rect x="156" y="36" width="40" height="56" fill="#6b7c8d"/>
  <rect x="170" y="20" width="12" height="20" fill="#43505c"/>
  <g fill="#f4e1b2" opacity="0.92">
    <rect x="75" y="150" width="12" height="12"/>
    <rect x="93" y="150" width="12" height="12"/>
    <rect x="149" y="118" width="14" height="14"/>
    <rect x="171" y="118" width="14" height="14"/>
    <rect x="307" y="102" width="16" height="16"/>
    <rect x="331" y="102" width="16" height="16"/>
    <rect x="387" y="128" width="12" height="12"/>
    <rect x="500" y="114" width="14" height="14"/>
    <rect x="522" y="114" width="14" height="14"/>
  </g>
  <path d="M0 312c38 14 76 14 114 0s76-14 114 0 76 14 114 0 76-14 114 0 76 14 144 0v88H0z" fill="#3b667a" opacity="0.66"/>
</svg>
